<svg width="201" height="160" viewBox="0 0 201 160" fill="none" xmlns="http://www.w3.org/2000/svg">
<g clip-path="url(#clip0_320_5390)">
<path fill-rule="evenodd" clip-rule="evenodd" d="M166.1 52C169.193 52 171.7 54.5072 171.7 57.6C171.7 60.6928 169.193 63.2 166.1 63.2H134.1C137.193 63.2 139.7 65.7072 139.7 68.8C139.7 71.8928 137.193 74.4 134.1 74.4H151.7C154.793 74.4 157.3 76.9072 157.3 80C157.3 83.0928 154.793 85.6 151.7 85.6H143.561C139.661 85.6 136.5 88.1072 136.5 91.2C136.5 93.2619 138.1 95.1285 141.3 96.8C144.393 96.8 146.9 99.3072 146.9 102.4C146.9 105.493 144.393 108 141.3 108H74.9001C71.8073 108 69.3001 105.493 69.3001 102.4C69.3001 99.3072 71.8073 96.8 74.9001 96.8H43.7001C40.6073 96.8 38.1001 94.2928 38.1001 91.2C38.1001 88.1072 40.6073 85.6 43.7001 85.6H75.7001C78.7929 85.6 81.3001 83.0928 81.3001 80C81.3001 76.9072 78.7929 74.4 75.7001 74.4H55.7001C52.6073 74.4 50.1001 71.8928 50.1001 68.8C50.1001 65.7072 52.6073 63.2 55.7001 63.2H87.7001C84.6073 63.2 82.1001 60.6928 82.1001 57.6C82.1001 54.5072 84.6073 52 87.7001 52H166.1ZM166.1 74.4C169.193 74.4 171.7 76.9072 171.7 80C171.7 83.0928 169.193 85.6 166.1 85.6C163.007 85.6 160.5 83.0928 160.5 80C160.5 76.9072 163.007 74.4 166.1 74.4Z" fill="#F3F7FF"/>
<path d="M131.439 59.5703L64.4943 65.4272C63.614 65.5042 62.9628 66.2803 63.0398 67.1606L67.293 115.775C67.3701 116.655 68.1461 117.306 69.0264 117.229L135.971 111.372C136.851 111.295 137.502 110.519 137.425 109.639L133.172 61.0248C133.095 60.1445 132.319 59.4933 131.439 59.5703Z" fill="white" stroke="#110A7A" stroke-width="2"/>
<path fill-rule="evenodd" clip-rule="evenodd" d="M118.277 109.31L72.6972 113.295C71.8169 113.372 71.0409 112.72 70.9639 111.84L67.6138 73.569C80.3752 90.1062 97.9676 102.724 118.277 109.31Z" fill="#F3F7FF"/>
<path fill-rule="evenodd" clip-rule="evenodd" d="M95.5876 72.5586C104.123 70.2715 112.896 75.3369 115.184 83.8723C117.471 92.4078 112.405 101.181 103.87 103.468C95.3344 105.755 86.561 100.69 84.2739 92.1545C81.9868 83.6191 87.0522 74.8457 95.5876 72.5586ZM107.896 79.2836L96.6822 98.7084C98.5944 99.2282 100.665 99.2645 102.717 98.7146C108.906 97.0565 112.578 90.6958 110.92 84.5076C110.37 82.4553 109.303 80.6798 107.896 79.2836ZM96.7128 76.3051C90.5246 77.9633 86.8522 84.324 88.5104 90.5122C89.0584 92.5574 90.1201 94.3279 91.5195 95.7219L102.73 76.3065C100.823 75.7914 98.7583 75.757 96.7128 76.3051Z" fill="#F3F7FF"/>
<path fill-rule="evenodd" clip-rule="evenodd" d="M108.696 79.4898L97.0937 99.5838C99.0722 100.122 101.215 100.16 103.338 99.5907C109.74 97.8754 113.539 91.2953 111.824 84.8937C111.255 82.7708 110.151 80.9341 108.696 79.4898ZM97.1266 76.4085C90.725 78.1238 86.9261 84.7038 88.6414 91.1054C89.186 93.1382 90.2213 94.9085 91.5855 96.3232L103.118 76.3495C101.211 75.8751 99.1597 75.8637 97.1266 76.4085Z" stroke="#110A7A" stroke-width="2"/>
<path d="M108.516 72.471C109.552 73.0242 110.533 73.6802 111.442 74.4296M113.466 76.3913C115.195 78.3588 116.509 80.7438 117.233 83.4447C119.748 92.8337 114.177 102.484 104.788 105C95.3985 107.516 85.7478 101.944 83.232 92.5551C80.7162 83.1661 86.2881 73.5154 95.6771 70.9996C99.0502 70.0958 102.457 70.2358 105.555 71.2217" stroke="#110A7A" stroke-width="2" stroke-linecap="round"/>
<path fill-rule="evenodd" clip-rule="evenodd" d="M101.029 37.8651C101.535 38.5816 101.832 39.456 101.832 40.3997C101.832 42.8298 99.8623 44.7997 97.4322 44.7997C95.0022 44.7997 93.0322 42.8298 93.0322 40.3997C93.0322 39.456 93.3294 38.5816 93.8352 37.8651C93.8331 37.91 93.8322 37.9548 93.8322 37.9997C93.8322 39.988 95.444 41.5997 97.4322 41.5997C99.4205 41.5997 101.032 39.988 101.032 37.9997L101.029 37.8651Z" fill="#F3F7FF"/>
<path d="M69.9873 60.5926L72.8817 58.0079M74.99 56.1253L93.8442 39.2885M103.154 41.5477L126.299 55.666" stroke="#110A7A" stroke-width="2" stroke-linecap="round" stroke-linejoin="round"/>
<path d="M97.432 41.5998C99.4203 41.5998 101.032 39.988 101.032 37.9998C101.032 36.0116 99.4203 34.3998 97.432 34.3998C95.4438 34.3998 93.832 36.0116 93.832 37.9998C93.832 39.988 95.4438 41.5998 97.432 41.5998Z" stroke="#110A7A" stroke-width="2"/>
</g>
<defs>
<clipPath id="clip0_320_5390">
<rect width="200" height="160" fill="white" transform="translate(0.5)"/>
</clipPath>
</defs>
</svg>
