<svg width="155" height="16" viewBox="0 0 155 16" fill="none" xmlns="http://www.w3.org/2000/svg">
<path fill-rule="evenodd" clip-rule="evenodd" d="M144.58 0.5L154.08 9.5H153.43H152.92H13.7859C13.745 9.56755 13.6948 9.63109 13.6353 9.69063C13.4457 9.88021 13.2155 9.975 12.9447 9.975H9.36968L6.11968 15.5H4.81968L6.44468 9.975H2.86968L1.89468 11.275H0.919678L1.56968 9L0.919678 6.725H1.89468L2.86968 8.025H6.44468L4.81968 2.5H6.11968L9.36968 8.025H12.9447C13.2155 8.025 13.4457 8.11979 13.6353 8.30937C13.6948 8.36891 13.745 8.43245 13.7859 8.5H151.749L143.92 1.25071L144.58 0.5Z" fill="#D9D9D9"/>
</svg>
