<svg width="114" height="34" viewBox="0 0 114 34" fill="none" xmlns="http://www.w3.org/2000/svg">
<path d="M111 31.021C97.2267 17.1144 78.1193 8.5 57 8.5C35.8807 8.5 16.7733 17.1144 3 31.021" stroke="#064BB4" stroke-opacity="0.24" stroke-linecap="round" stroke-dasharray="2 2"/>
<circle cx="3" cy="31" r="2" fill="#064BB4" stroke="#E5EFFF"/>
<circle cx="111" cy="31" r="2" fill="#064BB4" stroke="#E5EFFF"/>
<path d="M57.9133 13.3666L59.2533 10.2533L59.5467 9.55996C59.6 9.45329 59.74 9.35996 59.86 9.35996L61.9 9.35996C62.54 9.35996 63.3 8.88662 63.5933 8.31329C63.6933 8.11329 63.6933 7.87329 63.5933 7.67329C63.3 7.10663 62.5333 6.63329 61.8933 6.63329L59.8533 6.63329C59.7333 6.63329 59.5933 6.53996 59.54 6.43329L57.9067 2.63329C57.7333 2.21329 57.2067 1.87329 56.7533 1.87329L55.8733 1.87329C55.3067 1.87329 55.0267 2.29996 55.2533 2.82662L56.6933 6.16662C56.8067 6.42662 56.6667 6.63996 56.38 6.63996L55.64 6.63996L54.44 6.63996C54.2867 6.63996 54.0667 6.55329 53.96 6.44662L52.4067 4.89996C52.2467 4.73996 51.9333 4.66662 51.7067 4.73996L50.8 5.03996C50.4067 5.15996 50.22 5.60662 50.4067 5.97329L51.74 7.55996C51.9467 7.79996 51.9467 8.19329 51.74 8.43329L50.4067 10.02C50.2267 10.3866 50.4067 10.8333 50.8 10.9666L51.7067 11.2666C51.9267 11.34 52.2467 11.2666 52.4067 11.1066L53.96 9.55996C54.0667 9.44662 54.2867 9.35996 54.44 9.35996L56.38 9.35996C56.6667 9.35996 56.8 9.56662 56.6933 9.83329L55.2533 13.1733C55.0267 13.7 55.3067 14.1266 55.8733 14.1266L56.7533 14.1266C57.2067 14.1266 57.7333 13.7866 57.9133 13.3666Z" fill="#110A7A"/>
</svg>
