<svg width="21" height="20" viewBox="0 0 21 20" fill="none" xmlns="http://www.w3.org/2000/svg">
<g clip-path="url(#clip0_3029_2594)">
<path d="M20.555 10.2303C20.555 9.55056 20.4999 8.86711 20.3823 8.19836H10.95V12.0492H16.3514C16.1273 13.2911 15.4071 14.3898 14.3525 15.0879V17.5866H17.575C19.4674 15.8449 20.555 13.2728 20.555 10.2303Z" fill="#4285F4"/>
<path d="M10.95 20.0006C13.6471 20.0006 15.9215 19.1151 17.5787 17.5865L14.3562 15.0879C13.4597 15.6979 12.3022 16.0433 10.9537 16.0433C8.34484 16.0433 6.13282 14.2832 5.33914 11.9169H2.01377V14.4927C3.71136 17.8695 7.16901 20.0006 10.95 20.0006Z" fill="#34A853"/>
<path d="M5.33544 11.9169C4.91655 10.6749 4.91655 9.33008 5.33544 8.08811V5.51233H2.01374C0.595409 8.33798 0.595409 11.667 2.01374 14.4927L5.33544 11.9169Z" fill="#FBBC04"/>
<path d="M10.95 3.95805C12.3757 3.936 13.7536 4.47247 14.7861 5.45722L17.6412 2.60218C15.8334 0.904587 13.4339 -0.0287217 10.95 0.000673888C7.16901 0.000673888 3.71136 2.13185 2.01377 5.51234L5.33546 8.08812C6.12547 5.71811 8.34116 3.95805 10.95 3.95805Z" fill="#EA4335"/>
</g>
<defs>
<clipPath id="clip0_3029_2594">
<rect width="20" height="20" fill="white" transform="translate(0.75)"/>
</clipPath>
</defs>
</svg>
