<svg width="24" height="24" viewBox="0 0 24 24" fill="none" xmlns="http://www.w3.org/2000/svg">
<path fill-rule="evenodd" clip-rule="evenodd" d="M22.2493 3.89474C22.7822 3.89474 23.2142 4.32674 23.2142 4.85965C23.2142 5.39256 22.7822 5.82456 22.2493 5.82456H8.83704C8.30413 5.82456 7.87213 5.39256 7.87213 4.85965C7.87213 4.32674 8.30413 3.89474 8.83704 3.89474H22.2493ZM23.2142 12C23.2142 11.4671 22.7822 11.0351 22.2493 11.0351H2.17914C1.64624 11.0351 1.21423 11.4671 1.21423 12C1.21423 12.5329 1.64624 12.9649 2.17914 12.9649H22.2493C22.7822 12.9649 23.2142 12.5329 23.2142 12ZM23.2142 19.1403C23.2142 18.6074 22.7822 18.1754 22.2493 18.1754H5.36336C4.83045 18.1754 4.39845 18.6074 4.39845 19.1403C4.39845 19.6733 4.83045 20.1053 5.36336 20.1053H22.2493C22.7822 20.1053 23.2142 19.6733 23.2142 19.1403Z" fill="black"/>
</svg>
