<svg width="95" height="55" viewBox="0 0 95 55" fill="none" xmlns="http://www.w3.org/2000/svg">
<path fill-rule="evenodd" clip-rule="evenodd" d="M94.7735 0.786437C94.8938 0.871706 94.9723 1.00054 94.9889 1.13428C95.0044 1.20251 95.0038 1.27169 94.9865 1.33583L94.2359 19.877C94.2304 20.0136 94.1577 20.1309 94.0398 20.1934C93.922 20.2559 93.7729 20.2561 93.6377 20.1941L86.1942 16.779C86.2543 16.9268 86.2364 17.0909 86.1323 17.2053L82.5071 21.1878C82.3969 21.3088 82.2142 21.3454 82.041 21.281C81.8677 21.2166 81.7364 21.0635 81.7059 20.8902L80.5864 14.5177C80.5681 14.4135 80.5882 14.3122 80.6416 14.2314L72.9401 10.6978C72.7725 10.621 72.654 10.4614 72.6367 10.2897C72.6195 10.1179 72.7068 9.96562 72.86 9.90007L94.3137 0.723169C94.4562 0.662197 94.6324 0.686438 94.7735 0.786437ZM81.5554 14.6506L85.5525 16.4845C85.503 16.5053 85.458 16.5361 85.4207 16.5771L82.4232 19.87L81.5135 14.6919L81.5554 14.6506ZM94.0363 2.34349L82.1914 14.0234L93.3561 19.1459L94.0363 2.34349ZM92.5419 2.48577L81.27 13.6006L74.1715 10.3438L92.5419 2.48577ZM79.1488 25.4148C79.2904 25.0744 79.1289 24.6838 78.7879 24.5423C78.447 24.4009 78.0557 24.5622 77.914 24.9026C77.711 25.3906 77.4995 25.8713 77.2799 26.3448C77.1247 26.6793 77.2705 27.0761 77.6055 27.231C77.9406 27.386 78.3379 27.2404 78.4931 26.9059C78.7202 26.4162 78.9389 25.9192 79.1488 25.4148ZM77.0141 29.7852C77.1957 29.4642 77.0823 29.057 76.7609 28.8757C76.4394 28.6943 76.0316 28.8075 75.85 29.1285C75.3317 30.0445 74.7809 30.9307 74.1997 31.7877C73.9927 32.0929 74.0727 32.5079 74.3784 32.7146C74.6841 32.9213 75.0998 32.8414 75.3068 32.5362C75.908 31.6497 76.4779 30.7329 77.0141 29.7852ZM73.3831 35.1406C73.614 34.8529 73.5675 34.4328 73.2794 34.2023C72.9912 33.9718 72.5705 34.0181 72.3397 34.3058C71.6834 35.1236 70.9976 35.9115 70.2845 36.67C70.0318 36.9388 70.0451 37.3612 70.3143 37.6135C70.5835 37.8658 71.0066 37.8525 71.2593 37.5837C71.9959 36.8003 72.7047 35.9861 73.3831 35.1406ZM68.9546 39.8554C69.2269 39.6064 69.2455 39.1842 68.9961 38.9123C68.7468 38.6404 68.3239 38.6218 68.0516 38.8708C67.2791 39.5771 66.4811 40.2541 65.66 40.9026C65.3704 41.1313 65.3214 41.5511 65.5504 41.8402C65.7795 42.1294 66.1999 42.1784 66.4895 41.9497C67.3351 41.2818 68.1577 40.5839 68.9546 39.8554ZM63.8848 43.8646C64.1894 43.6562 64.2671 43.2408 64.0584 42.9367C63.8496 42.6326 63.4335 42.555 63.129 42.7634C62.2649 43.3547 61.3802 43.9179 60.4773 44.4538C60.1599 44.6422 60.0556 45.0518 60.2442 45.3687C60.4329 45.6856 60.8431 45.7898 61.1605 45.6014C62.0874 45.0513 62.9964 44.4726 63.8848 43.8646ZM58.3347 47.1634C58.663 46.9946 58.792 46.5921 58.623 46.2644C58.4539 45.9366 58.0508 45.8078 57.7226 45.9765C56.7902 46.456 55.8422 46.9088 54.8809 47.3356C54.5435 47.4854 54.3917 47.8799 54.5417 48.2168C54.6917 48.5536 55.0868 48.7053 55.4242 48.5555C56.408 48.1186 57.379 47.6548 58.3347 47.1634ZM1.58287 46.8581C1.27825 46.6498 0.862175 46.7275 0.653535 47.0316C0.444894 47.3358 0.522697 47.7512 0.827312 47.9595C1.2671 48.2603 1.72818 48.5512 2.20916 48.832C2.52789 49.018 2.93735 48.9109 3.12372 48.5927C3.31008 48.2744 3.20277 47.8656 2.88404 47.6795C2.4289 47.4138 1.99484 47.1398 1.58287 46.8581ZM52.4427 49.7835C52.7877 49.6521 52.9606 49.2663 52.8289 48.9219C52.6973 48.5775 52.3109 48.4048 51.966 48.5363C50.9839 48.9105 49.9911 49.2594 48.9901 49.5836C48.6389 49.6973 48.4465 50.0738 48.5604 50.4245C48.6743 50.7751 49.0514 50.9672 49.4026 50.8535C50.4247 50.5225 51.4389 50.166 52.4427 49.7835ZM5.65464 49.0823C5.31678 48.9336 4.92218 49.0866 4.77328 49.4239C4.62438 49.7613 4.77756 50.1553 5.11542 50.3039C6.07515 50.7262 7.08917 51.1177 8.15085 51.4769C8.50053 51.5952 8.88007 51.408 8.99856 51.0589C9.11705 50.7097 8.92964 50.3308 8.57995 50.2125C7.55259 49.8649 6.57552 49.4875 5.65464 49.0823ZM46.3143 51.7709C46.6706 51.6743 46.881 51.3076 46.7843 50.9518C46.6875 50.5961 46.3202 50.386 45.9639 50.4826C44.9467 50.7584 43.9235 51.0099 42.897 51.2378C42.5365 51.3178 42.3093 51.6744 42.3894 52.0342C42.4696 52.3941 42.8267 52.621 43.1871 52.541C44.2334 52.3088 45.2767 52.0523 46.3143 51.7709ZM11.588 51.1076C11.2307 51.0147 10.8656 51.2286 10.7725 51.5854C10.6794 51.9421 10.8936 52.3066 11.2509 52.3995C12.2681 52.6641 13.3187 52.9024 14.3983 53.1136C14.7606 53.1844 15.1119 52.9486 15.1828 52.5868C15.2538 52.2251 15.0176 51.8744 14.6553 51.8035C13.6013 51.5973 12.5774 51.365 11.588 51.1076ZM40.0289 53.1679C40.3926 53.1041 40.6355 52.758 40.5716 52.3949C40.5077 52.0318 40.1611 51.7892 39.7975 51.853C38.7561 52.0357 37.7138 52.1949 36.673 52.3311C36.3069 52.379 36.049 52.7142 36.097 53.0797C36.145 53.4452 36.4807 53.7027 36.8467 53.6548C37.9065 53.5161 38.9681 53.354 40.0289 53.1679ZM17.7684 52.3235C17.4027 52.2724 17.0648 52.5269 17.0137 52.892C16.9625 53.2571 17.2174 53.5945 17.5831 53.6456C18.6317 53.7921 19.7019 53.9144 20.7902 54.0118C21.158 54.0447 21.4828 53.7737 21.5157 53.4065C21.5487 53.0393 21.2773 52.715 20.9095 52.6821C19.8428 52.5867 18.7946 52.4668 17.7684 52.3235ZM33.647 54.0039C34.0148 53.9717 34.2868 53.6479 34.2546 53.2806C34.2224 52.9134 33.8981 52.6418 33.5303 52.6739C32.4736 52.7664 31.4213 52.8356 30.3759 52.8822C30.0071 52.8986 29.7214 53.2105 29.7379 53.5788C29.7544 53.9471 30.0667 54.2323 30.4356 54.2158C31.4999 54.1684 32.5712 54.098 33.647 54.0039ZM24.0593 52.8898C23.6904 52.874 23.3785 53.1597 23.3627 53.528C23.3468 53.8963 23.633 54.2077 24.0019 54.2236C25.0617 54.2691 26.1349 54.2914 27.2184 54.2899C27.5877 54.2894 27.8865 53.9902 27.886 53.6215C27.8855 53.2529 27.5858 52.9544 27.2166 52.9549C26.1527 52.9564 25.0993 52.9344 24.0593 52.8898Z" fill="#686868"/>
</svg>
