<svg width="61" height="125" viewBox="0 0 61 125" fill="none" xmlns="http://www.w3.org/2000/svg">
<path fill-rule="evenodd" clip-rule="evenodd" d="M30.3694 41.6871C32.8257 41.6871 35.1814 42.6629 36.9183 44.3998C38.6552 46.1366 39.6309 48.4923 39.6309 50.9486C39.6309 56.0599 36.2269 60.2204 31.1054 60.2204C25.984 60.2204 21.1079 56.0701 21.1079 50.9486C21.1079 48.4923 22.0836 46.1366 23.8205 44.3998C25.5574 42.6629 27.9131 41.6871 30.3694 41.6871ZM4.81331 115.442H18.3785V76.3105C17.7993 75.9042 17.3146 75.3777 16.9576 74.7669L3.71951 52.2776C3.37171 51.7145 3.13992 51.0877 3.03773 50.4338C2.93554 49.7799 2.96503 49.1122 3.12445 48.4699C3.28387 47.8276 3.57002 47.2236 3.9661 46.6934C4.36217 46.1632 4.86019 45.7175 5.4309 45.3824C6.00161 45.0473 6.63352 44.8297 7.28952 44.7422C7.94552 44.6547 8.61238 44.6991 9.25096 44.8729C9.88954 45.0467 10.487 45.3464 11.0081 45.7543C11.5293 46.1621 11.9637 46.67 12.2859 47.2481L22.3652 64.34C27.6113 63.8443 32.8924 63.8443 38.1385 64.34L48.3609 46.9619C48.6912 46.3987 49.1291 45.9062 49.6497 45.5122C50.1703 45.1183 50.7634 44.8308 51.3951 44.6661C52.0268 44.5014 52.6848 44.4628 53.3315 44.5524C53.9781 44.642 54.6008 44.8581 55.1639 45.1883C55.7271 45.5185 56.2197 45.9565 56.6136 46.4771C57.0075 46.9977 57.295 47.5908 57.4597 48.2225C57.6244 48.8542 57.663 49.5122 57.5735 50.1588C57.4839 50.8055 57.2678 51.4282 56.9375 51.9913L43.5257 74.7669C43.2169 75.2977 42.8112 75.7658 42.3297 76.147V115.442H55.9255C56.428 115.445 56.909 115.646 57.2634 116.003C57.6178 116.359 57.8167 116.841 57.8167 117.343V123.109C57.8167 123.61 57.6174 124.091 57.2628 124.446C56.9081 124.801 56.4271 125 55.9255 125H4.81331C4.31175 125 3.83073 124.801 3.47607 124.446C3.12141 124.091 2.92216 123.61 2.92216 123.109V117.343C2.92215 116.841 3.12107 116.359 3.47544 116.003C3.82981 115.646 4.31081 115.445 4.81331 115.442ZM28.8258 115.442H31.8926V95.9274C30.8844 96.1676 29.834 96.1676 28.8258 95.9274V115.442ZM32.0357 8.1064C32.0357 8.54831 31.8601 8.97213 31.5476 9.28462C31.2352 9.5971 30.8113 9.77265 30.3694 9.77265C29.9275 9.77265 29.5037 9.5971 29.1912 9.28462C28.8787 8.97213 28.7032 8.54831 28.7032 8.1064V1.66626C28.7032 1.22434 28.8787 0.80052 29.1912 0.488036C29.5037 0.175552 29.9275 0 30.3694 0C30.8113 0 31.2352 0.175552 31.5476 0.488036C31.8601 0.80052 32.0357 1.22434 32.0357 1.66626V8.08595V8.1064ZM41.9003 12.1954C41.7987 12.394 41.658 12.57 41.4866 12.7129C41.3153 12.8557 41.1168 12.9625 40.9032 13.0268C40.6895 13.091 40.4651 13.1114 40.2433 13.0868C40.0216 13.0622 39.8071 12.993 39.6128 12.8834C39.4185 12.7739 39.2483 12.6262 39.1124 12.4492C38.9766 12.2722 38.8779 12.0696 38.8223 11.8535C38.7667 11.6375 38.7554 11.4124 38.7889 11.1918C38.8225 10.9713 38.9003 10.7598 39.0176 10.57L41.5834 5.98013C41.6851 5.78153 41.8258 5.60551 41.9972 5.46264C42.1685 5.31978 42.367 5.21301 42.5806 5.14874C42.7943 5.08448 43.0187 5.06405 43.2404 5.08867C43.4622 5.1133 43.6766 5.18248 43.871 5.29205C44.0653 5.40162 44.2355 5.54934 44.3713 5.72632C44.5072 5.9033 44.6058 6.10591 44.6614 6.32197C44.717 6.53804 44.7284 6.7631 44.6948 6.98367C44.6613 7.20423 44.5835 7.41574 44.4662 7.6055L41.8901 12.1443L41.9003 12.1954ZM21.7212 10.5189C21.8386 10.7086 21.9163 10.9202 21.9499 11.1407C21.9834 11.3613 21.9721 11.5864 21.9165 11.8024C21.8609 12.0185 21.7622 12.2211 21.6264 12.3981C21.4906 12.5751 21.3204 12.7228 21.126 12.8323C20.9317 12.9419 20.7172 13.0111 20.4955 13.0357C20.2738 13.0603 20.0493 13.0399 19.8357 12.9756C19.622 12.9114 19.4236 12.8046 19.2522 12.6617C19.0809 12.5189 18.9401 12.3429 18.8385 12.1443L16.2727 7.6055C16.1553 7.41574 16.0776 7.20423 16.044 6.98367C16.0105 6.7631 16.0218 6.53804 16.0774 6.32197C16.133 6.10591 16.2317 5.9033 16.3675 5.72632C16.5033 5.54934 16.6735 5.40162 16.8679 5.29205C17.0622 5.18248 17.2767 5.1133 17.4984 5.08867C17.7201 5.06405 17.9446 5.08448 18.1582 5.14874C18.3719 5.21301 18.5703 5.31978 18.7417 5.46264C18.913 5.60551 19.0538 5.78153 19.1554 5.98013L21.7212 10.5189ZM7.77782 24.8814L9.67919 29.3384L14.5144 29.778C14.5651 29.7818 14.6145 29.7958 14.6596 29.8191C14.7048 29.8424 14.7448 29.8746 14.7772 29.9137C14.8097 29.9528 14.8339 29.9981 14.8484 30.0468C14.863 30.0955 14.8676 30.1466 14.862 30.1971C14.8521 30.2962 14.8045 30.3876 14.7291 30.4527L11.0797 33.642L12.1632 38.3648C12.1848 38.4664 12.1659 38.5723 12.1105 38.6601C12.0551 38.7479 11.9677 38.8107 11.8668 38.8351C11.7651 38.8553 11.6594 38.8371 11.5703 38.7839L7.42004 36.2999L3.2595 38.7839C3.17132 38.8365 3.06591 38.8521 2.9663 38.8272C2.86669 38.8023 2.78099 38.739 2.72793 38.651C2.6915 38.5591 2.6915 38.4567 2.72793 38.3648L3.7604 33.642L0.11099 30.4527C0.0397682 30.3784 0 30.2795 0 30.1766C0 30.0738 0.0397682 29.9749 0.11099 29.9006C0.1457 29.8618 0.18825 29.8308 0.235828 29.8097C0.283407 29.7885 0.334931 29.7777 0.386996 29.778L5.20177 29.3384L7.10314 24.8814C7.14571 24.7882 7.22257 24.7149 7.31775 24.6768C7.41293 24.6387 7.51912 24.6388 7.61426 24.677C7.66136 24.6938 7.70414 24.7208 7.7395 24.7562C7.77486 24.7915 7.80192 24.8343 7.81871 24.8814H7.77782ZM53.4312 24.8814L55.3326 29.3384L60.1678 29.778C60.2185 29.7818 60.2679 29.7958 60.3131 29.8191C60.3582 29.8424 60.3982 29.8746 60.4306 29.9137C60.4631 29.9528 60.4873 29.9981 60.5019 30.0468C60.5164 30.0955 60.521 30.1466 60.5154 30.1971C60.5055 30.2962 60.4579 30.3876 60.3825 30.4527L56.7331 33.642L57.8167 38.3648C57.8382 38.4664 57.8193 38.5723 57.7639 38.6601C57.7086 38.7479 57.6211 38.8107 57.5202 38.8351C57.4185 38.8553 57.3129 38.8371 57.2238 38.7839L53.0735 36.2999L48.9129 38.7839C48.8247 38.8365 48.7193 38.8521 48.6197 38.8272C48.5201 38.8023 48.4344 38.739 48.3814 38.651C48.3449 38.5591 48.3449 38.4567 48.3814 38.3648L49.4036 33.642L45.7542 30.4527C45.683 30.3784 45.6432 30.2795 45.6432 30.1766C45.6432 30.0738 45.683 29.9749 45.7542 29.9006C45.7889 29.8618 45.8314 29.8308 45.879 29.8097C45.9266 29.7885 45.9781 29.7777 46.0302 29.778L50.845 29.3384L52.7463 24.8814C52.7889 24.7882 52.8658 24.7149 52.9609 24.6768C53.0561 24.6387 53.1623 24.6388 53.2575 24.677C53.3036 24.6955 53.3455 24.7231 53.3806 24.7583C53.4157 24.7934 53.4434 24.8353 53.4619 24.8814H53.4312ZM31.0134 12.6758L34.4175 20.6596L43.0657 21.4262C43.2482 21.4469 43.4159 21.5369 43.5338 21.6777C43.6518 21.8185 43.7111 21.9994 43.6995 22.1827C43.6831 22.3605 43.5989 22.5253 43.4644 22.6427L36.922 28.3571L38.8234 36.8008C38.846 36.8895 38.8503 36.9819 38.836 37.0723C38.8218 37.1627 38.7893 37.2493 38.7405 37.3267C38.6917 37.4042 38.6277 37.4709 38.5523 37.5228C38.4769 37.5748 38.3918 37.6108 38.302 37.6288C38.212 37.6521 38.118 37.656 38.0263 37.6401C37.9347 37.6243 37.8474 37.589 37.7705 37.5368L30.3387 33.09L22.8866 37.547C22.809 37.595 22.7226 37.627 22.6325 37.6412C22.5424 37.6554 22.4503 37.6514 22.3618 37.6295C22.2732 37.6076 22.1899 37.5682 22.1168 37.5137C22.0437 37.4591 21.9822 37.3905 21.9359 37.3119C21.8449 37.1581 21.8156 36.9754 21.8541 36.8008L23.7862 28.3366L17.2438 22.6223C17.1691 22.5615 17.1078 22.4859 17.0639 22.4002C17.02 22.3146 16.9943 22.2207 16.9885 22.1246C16.9828 22.0285 16.997 21.9323 17.0304 21.842C17.0638 21.7516 17.1156 21.6693 17.1825 21.6C17.3062 21.4625 17.4784 21.3782 17.6629 21.3649L26.2907 20.5982L29.705 12.6043C29.7433 12.5193 29.7984 12.443 29.8669 12.3798C29.9354 12.3165 30.0159 12.2677 30.1037 12.2363C30.1914 12.2048 30.2846 12.1913 30.3777 12.1966C30.4707 12.2018 30.5618 12.2258 30.6454 12.2669C30.8106 12.3432 30.9417 12.4779 31.0134 12.6452V12.6758ZM30.3694 75.2985C30.8425 75.2985 31.305 75.4388 31.6984 75.7016C32.0917 75.9645 32.3983 76.3381 32.5794 76.7751C32.7604 77.2122 32.8078 77.6932 32.7155 78.1572C32.6232 78.6212 32.3954 79.0474 32.0609 79.382C31.7263 79.7165 31.3001 79.9443 30.8361 80.0366C30.3721 80.1289 29.8911 80.0816 29.454 79.9005C29.0169 79.7195 28.6433 79.4129 28.3805 79.0195C28.1177 78.6261 27.9774 78.1637 27.9774 77.6905C27.9774 77.0561 28.2294 76.4477 28.678 75.9991C29.1266 75.5505 29.735 75.2985 30.3694 75.2985ZM32.4139 73.0802C33.4426 73.5308 34.2909 74.3126 34.8237 75.3012C35.3565 76.2898 35.543 77.4283 35.3537 78.5353C35.1643 79.6422 34.6099 80.6539 33.7788 81.4092C32.9477 82.1645 31.8877 82.6199 30.7678 82.7029C29.6478 82.7859 28.5323 82.4916 27.599 81.867C26.6657 81.2424 25.9683 80.3234 25.6179 79.2564C25.2675 78.1895 25.2843 77.0359 25.6656 75.9796C26.0468 74.9233 26.7707 74.025 27.7218 73.4278L25.3706 67.0592H29.0814L32.4139 73.0802ZM30.8396 67.0592H35.3989L33.4566 72.334L30.5432 67.0592H30.8396Z" fill="#2E58A6"/>
</svg>
