<svg width="100" height="25" viewBox="0 0 100 25" fill="none" xmlns="http://www.w3.org/2000/svg">
<path d="M0 17.9838L17.9053 0.514844C18.2498 0.184141 18.7079 0 19.1868 0H22.5903L16.6219 17.9838H0Z" fill="#2E58A6"/>
<path d="M0 17.9838L5.94382 6.58212C6.03657 6.40549 6.22019 6.29463 6.42084 6.29463H8.08851C8.25698 6.29463 8.41788 6.37355 8.51821 6.50884L9.89059 8.33522L0 17.9838Z" fill="#00A1CA"/>
<path d="M0 17.9838L18.2876 24.8835C18.494 24.9605 18.7117 25 18.9312 25H22.5903L16.6219 17.982H0V17.9838Z" fill="#110A7A"/>
<path d="M21.0665 16.1274C23.7223 16.4619 25.7534 16.5107 26.9497 16.3829C28.8332 16.1763 29.3992 15.5224 29.5336 14.7726C29.7323 13.6565 28.271 13.2901 26.5541 13.0026C24.2882 12.5554 21.6287 12.0613 22.1019 9.49455C22.295 8.41037 22.6414 7.72454 23.6049 7.08756C25.0057 6.1631 27.7126 5.9395 32.8916 6.44871L32.6304 7.9162C26.06 7.37317 24.9981 8.01203 24.7899 9.19204C24.3091 11.9034 33.1301 9.71815 32.267 14.581C32.0171 15.8098 31.5193 16.7963 29.8232 17.484C28.2085 18.074 25.371 18.3127 20.7882 17.7076L21.0684 16.1293L21.0665 16.1274Z" fill="#110A7A"/>
<path d="M32.8878 17.8655L35.0344 5.77791H37.6845L35.5379 17.8655H32.8878ZM40.9044 17.8655L37.4025 13.5288C36.9368 12.8899 37.111 12.189 37.8511 11.631L42.1878 8.74484H44.7262L40.2343 11.6949C39.8481 11.9654 39.8084 12.189 40.0374 12.4446L44.2473 17.8655H40.9063H40.9044Z" fill="#110A7A"/>
<path d="M46.8861 20.8155L48.6844 17.9293C47.2514 18.0402 46.7006 17.3393 46.286 15.6971L44.5161 8.74483H47.3271L48.7128 14.8685C48.8888 15.6821 49.0781 15.8888 49.4642 15.8888C49.8504 15.8888 50.0738 15.714 50.5546 14.9004L54.2174 8.74483H56.1141L48.7809 20.8155H46.8861Z" fill="#110A7A"/>
<path d="M62.925 17.7865C56.807 18.6791 54.2459 17.3563 54.9595 13.3371C55.6713 9.33483 58.681 8.02705 64.5132 8.84066L64.252 10.3081C62.0543 10.0207 60.449 10.1015 59.4553 10.5468C58.4634 10.9771 57.8463 11.9184 57.5945 13.3371C57.339 14.7726 57.638 15.714 58.4747 16.1593C59.3133 16.5896 60.8939 16.6535 63.1862 16.319L62.925 17.7865Z" fill="#110A7A"/>
<path d="M64.888 17.8655C64.3409 17.8655 64.1176 17.5949 64.2141 17.0519L66.2168 5.77791H68.8669L66.7203 17.8655H64.8899H64.888Z" fill="#110A7A"/>
<path d="M80.2112 8.74483L78.6817 17.3562C78.0552 17.3562 77.103 17.4671 75.8272 17.6907C74.5513 17.9143 73.4705 18.0252 72.5865 18.0252C70.9642 18.0252 69.8909 17.7377 69.3628 17.1796C68.8347 16.6216 68.7116 15.6013 68.9691 14.1507L69.9288 8.74483H71.7592C72.3063 8.74483 72.5297 9.0154 72.435 9.55843L71.676 13.8313C71.4829 14.9154 71.4999 15.6332 71.7403 15.9996C71.9807 16.366 72.56 16.5426 73.4761 16.5426C74.2314 16.5426 75.0056 16.4318 75.7817 16.2232C76.1717 16.1124 76.272 15.9996 76.3193 15.729L77.5592 8.74483H80.2093H80.2112Z" fill="#110A7A"/>
<path d="M83.1453 17.7227C81.9187 17.484 80.9609 17.3563 80.3021 17.3563L82.3616 5.76288H85.0117L84.2375 10.1165C84.5234 9.68622 85.0212 9.31981 85.7311 9.03233C86.4409 8.74484 87.1735 8.60204 87.9609 8.60204C91.3512 8.60204 92.6876 10.1165 92.1178 13.3221C91.5632 16.4468 89.4753 18.074 86.1324 18.074C85.3771 18.074 84.3852 17.9632 83.1434 17.7227M89.4829 13.3221C89.8823 11.0729 89.1421 10.0846 87.1337 10.0846C85.1253 10.0846 84.0028 11.0729 83.6034 13.3221L83.1756 15.7291C83.1283 15.9996 83.1888 16.1124 83.5372 16.2232C84.3776 16.4619 85.1745 16.5896 85.8976 16.5896C87.906 16.5896 89.0948 15.5055 89.4829 13.3202" fill="#110A7A"/>
<path d="M87.0258 6.38482C89.2746 6.63848 89.7024 6.31529 89.799 5.76475C89.8425 5.51672 89.7914 5.35137 89.6381 5.26494C89.4923 5.17287 89.2102 5.12777 88.7938 5.12777H87.8208L87.9136 4.60541H88.8866C89.286 4.60541 89.5604 4.56595 89.7081 4.47952C89.8557 4.39308 89.9542 4.23149 89.9958 4.00225C90.0905 3.47238 89.8614 3.25441 87.5501 3.42728L87.6486 2.86922C90.8041 2.51221 91.1903 3.17925 91.0578 3.92709C90.9631 4.46261 90.6356 4.77264 90.0753 4.86471C90.7132 4.95678 90.9404 5.27809 90.8382 5.84742C90.7549 6.25517 90.5959 6.58963 90.011 6.8245C89.4658 7.02555 88.4871 7.12326 86.9274 6.93912L87.0258 6.38669V6.38482Z" fill="#00A1CA"/>
<path d="M91.5935 6.55205C91.336 6.21195 91.2754 5.67268 91.4061 4.93048C91.5537 4.10185 91.8339 3.50433 92.4623 3.12477C93.087 2.7734 94.0221 2.65878 95.4967 2.86547L95.4001 3.41226C94.4669 3.292 93.8347 3.292 93.3936 3.40098C93.1759 3.45359 92.998 3.54566 92.8636 3.67719C92.6043 3.93649 92.4831 4.25216 92.3923 4.80459C92.6062 4.51147 93.1021 4.32732 93.687 4.32732C94.9837 4.32732 95.5308 4.7407 95.3661 5.66705C95.1957 6.62721 94.4594 7.05186 93.0529 7.05186C92.3412 7.05186 91.8547 6.88463 91.5953 6.55205M94.3439 5.68959C94.4442 5.12026 94.1792 4.88539 93.4391 4.88539C92.6989 4.88539 92.3677 5.11462 92.2654 5.68959C92.1708 6.21947 92.4869 6.49944 93.157 6.49944C93.899 6.49944 94.2417 6.26457 94.3439 5.68959Z" fill="#00A1CA"/>
<path d="M95.737 6.37918C98.2546 6.61593 98.6843 6.21195 98.7998 5.56369C98.9077 4.96054 98.6541 4.71815 97.8344 4.73506C97.2476 4.74633 96.8387 4.89665 96.5964 5.18977L95.9604 5.08643L96.763 2.81473H99.9999L99.9072 3.36715H97.4994L97.0867 4.48139C97.3688 4.32544 97.7303 4.24652 98.1714 4.239C99.4718 4.21646 99.9715 4.66366 99.805 5.60691C99.7122 6.09545 99.5324 6.49192 98.9115 6.76249C98.319 6.99737 97.3063 7.12514 95.6443 6.93536L95.737 6.3773V6.37918Z" fill="#00A1CA"/>
</svg>
