<svg width="201" height="160" viewBox="0 0 201 160" fill="none" xmlns="http://www.w3.org/2000/svg">
<g clip-path="url(#clip0_478_10741)">
<path fill-rule="evenodd" clip-rule="evenodd" d="M166.1 52C169.193 52 171.7 54.5072 171.7 57.6C171.7 60.6928 169.193 63.2 166.1 63.2H134.1C137.193 63.2 139.7 65.7072 139.7 68.8C139.7 71.8928 137.193 74.4 134.1 74.4H151.7C154.793 74.4 157.3 76.9072 157.3 80C157.3 83.0928 154.793 85.6 151.7 85.6H143.561C139.661 85.6 136.5 88.1072 136.5 91.2C136.5 93.2619 138.1 95.1285 141.3 96.8C144.393 96.8 146.9 99.3072 146.9 102.4C146.9 105.493 144.393 108 141.3 108H74.9C71.8072 108 69.3 105.493 69.3 102.4C69.3 99.3072 71.8072 96.8 74.9 96.8H43.7C40.6072 96.8 38.1 94.2928 38.1 91.2C38.1 88.1072 40.6072 85.6 43.7 85.6H75.7C78.7928 85.6 81.3 83.0928 81.3 80C81.3 76.9072 78.7928 74.4 75.7 74.4H55.7C52.6072 74.4 50.1 71.8928 50.1 68.8C50.1 65.7072 52.6072 63.2 55.7 63.2H87.7C84.6072 63.2 82.1 60.6928 82.1 57.6C82.1 54.5072 84.6072 52 87.7 52H166.1ZM166.1 74.4C169.193 74.4 171.7 76.9072 171.7 80C171.7 83.0928 169.193 85.6 166.1 85.6C163.007 85.6 160.5 83.0928 160.5 80C160.5 76.9072 163.007 74.4 166.1 74.4Z" fill="#F3F7FF"/>
<path d="M131.439 59.5703L64.4943 65.4271C63.614 65.5042 62.9628 66.2802 63.0398 67.1605L67.293 115.775C67.37 116.655 68.1461 117.306 69.0264 117.229L135.971 111.372C136.851 111.295 137.502 110.519 137.425 109.639L133.172 61.0247C133.095 60.1444 132.319 59.4933 131.439 59.5703Z" fill="white" stroke="#110A7A" stroke-width="2"/>
<path fill-rule="evenodd" clip-rule="evenodd" d="M118.277 109.31L72.6975 113.295C71.8172 113.372 71.0411 112.72 70.9641 111.84L67.614 73.569C80.3754 90.1062 97.9678 102.724 118.277 109.31Z" fill="#F3F7FF"/>
<path fill-rule="evenodd" clip-rule="evenodd" d="M95.588 72.5587C104.123 70.2717 112.897 75.337 115.184 83.8724C117.471 92.4079 112.406 101.181 103.87 103.468C95.3347 105.755 86.5613 100.69 84.2743 92.1546C81.9872 83.6192 87.0525 74.8458 95.588 72.5587ZM107.897 79.2837L96.6826 98.7085C98.5948 99.2283 100.666 99.2646 102.718 98.7147C108.906 97.0566 112.578 90.6959 110.92 84.5077C110.37 82.4554 109.303 80.6799 107.897 79.2837ZM96.7131 76.3053C90.5249 77.9634 86.8526 84.3241 88.5107 90.5123C89.0587 92.5576 90.1204 94.328 91.5198 95.722L102.73 76.3066C100.823 75.7915 98.7587 75.7572 96.7131 76.3053Z" fill="#F3F7FF"/>
<path fill-rule="evenodd" clip-rule="evenodd" d="M108.696 79.4899L97.0938 99.5839C99.0723 100.122 101.215 100.16 103.338 99.5908C109.74 97.8755 113.539 91.2954 111.824 84.8939C111.255 82.7709 110.151 80.9342 108.696 79.4899ZM97.1268 76.4086C90.7252 78.1239 86.9262 84.7039 88.6415 91.1055C89.1862 93.1383 90.2214 94.9086 91.5857 96.3233L103.119 76.3496C101.211 75.8752 99.1599 75.8638 97.1268 76.4086Z" stroke="#110A7A" stroke-width="2"/>
<path d="M108.516 72.471C109.552 73.0242 110.533 73.6802 111.442 74.4296M113.466 76.3913C115.195 78.3588 116.509 80.7438 117.233 83.4447C119.749 92.8337 114.177 102.484 104.788 105C95.3987 107.516 85.7479 101.944 83.2322 92.5551C80.7164 83.1661 86.2882 73.5154 95.6772 70.9996C99.0504 70.0958 102.457 70.2358 105.555 71.2217" stroke="#110A7A" stroke-width="2" stroke-linecap="round"/>
<path fill-rule="evenodd" clip-rule="evenodd" d="M101.029 37.8651C101.535 38.5816 101.832 39.4559 101.832 40.3997C101.832 42.8297 99.8624 44.7997 97.4324 44.7997C95.0023 44.7997 93.0324 42.8297 93.0324 40.3997C93.0324 39.4559 93.3295 38.5816 93.8353 37.8651C93.8332 37.91 93.8324 37.9547 93.8324 37.9997C93.8324 39.9879 95.4442 41.5997 97.4324 41.5997C99.4206 41.5997 101.032 39.9879 101.032 37.9997L101.029 37.8651Z" fill="#F3F7FF"/>
<path d="M69.9872 60.5926L72.8816 58.0079M74.9898 56.1253L93.8441 39.2885M103.154 41.5477L126.299 55.666" stroke="#110A7A" stroke-width="2" stroke-linecap="round" stroke-linejoin="round"/>
<path d="M97.4324 41.5998C99.4206 41.5998 101.032 39.9881 101.032 37.9998C101.032 36.0116 99.4206 34.3998 97.4324 34.3998C95.4441 34.3998 93.8324 36.0116 93.8324 37.9998C93.8324 39.9881 95.4441 41.5998 97.4324 41.5998Z" stroke="#110A7A" stroke-width="2"/>
</g>
<defs>
<clipPath id="clip0_478_10741">
<rect width="200" height="160" fill="white" transform="translate(0.500008)"/>
</clipPath>
</defs>
</svg>
